<svg width="183" height="100" viewBox="0 0 183 100" fill="none" xmlns="http://www.w3.org/2000/svg">
<g clip-path="url(#clip0_3019_17303)">
<path d="M150.616 20.4227C150.563 20.0882 150.381 19.7883 150.108 19.5888C149.836 19.3893 149.496 19.3066 149.162 19.359C148.829 19.4114 148.53 19.5945 148.331 19.868C148.133 20.1416 148.05 20.4832 148.102 20.8176C148.284 22.0066 148.525 25.7286 147.237 27.2275C146.975 27.5438 146.609 27.7554 146.205 27.8242L146.321 20.7306C146.328 20.4832 146.286 20.2369 146.196 20.0063C146.106 19.7757 145.971 19.5656 145.799 19.3885C145.627 19.2113 145.421 19.0708 145.193 18.9752C144.966 18.8796 144.722 18.8309 144.475 18.8321C144.228 18.8332 143.985 18.8841 143.758 18.9818C143.531 19.0795 143.327 19.2219 143.156 19.4007C142.985 19.5794 142.852 19.7907 142.765 20.0221C142.677 20.2535 142.637 20.5003 142.646 20.7476L142.979 34.2043C142.558 34.1452 142.175 33.931 141.904 33.6035C140.622 32.1045 140.846 28.3826 141.036 27.1936C141.089 26.8594 141.006 26.5181 140.808 26.2447C140.609 25.9714 140.311 25.7884 139.978 25.736C139.645 25.6836 139.305 25.7662 139.032 25.9655C138.76 26.1647 138.578 26.4645 138.525 26.7987C138.434 27.3847 137.698 32.5992 139.97 35.2617C140.352 35.7117 140.821 36.0783 141.35 36.3391C141.878 36.5998 142.454 36.7491 143.042 36.7777L143.186 42.6355H145.961L146.173 30.3953C146.75 30.3599 147.314 30.208 147.831 29.9486C148.348 29.6892 148.807 29.3277 149.181 28.8858C151.441 26.2105 150.707 20.9981 150.616 20.4227Z" fill="#D4DCF8"/>
<path d="M32.1459 31.8217C32.1293 31.7162 32.0923 31.615 32.0367 31.5238C31.9812 31.4327 31.9084 31.3534 31.8223 31.2905C31.7363 31.2276 31.6387 31.1823 31.5353 31.1573C31.4318 31.1322 31.3244 31.1278 31.2193 31.1444C31.1141 31.161 31.0132 31.1982 30.9224 31.2539C30.8316 31.3097 30.7526 31.3828 30.6899 31.4691C30.6273 31.5555 30.5822 31.6534 30.5572 31.7572C30.5322 31.8611 30.5279 31.9689 30.5444 32.0744C30.6608 32.8324 30.8089 35.2061 29.9923 36.1615C29.8253 36.3628 29.5918 36.4969 29.3343 36.5395L29.4084 32.0192C29.4151 31.8606 29.3898 31.7024 29.3339 31.5539C29.2781 31.4055 29.193 31.2699 29.0836 31.1553C28.9742 31.0408 28.8428 30.9496 28.6974 30.8873C28.552 30.8251 28.3955 30.793 28.2374 30.793C28.0793 30.793 27.9229 30.8251 27.7774 30.8873C27.632 30.9496 27.5007 31.0408 27.3913 31.1553C27.2819 31.2699 27.1967 31.4055 27.1409 31.5539C27.0851 31.7024 27.0598 31.8606 27.0665 32.0192L27.278 40.5969C27.01 40.56 26.7654 40.4237 26.5926 40.2147C25.776 39.2593 25.9241 36.8855 26.0404 36.1276C26.0735 35.9144 26.0209 35.6968 25.8942 35.5226C25.7674 35.3484 25.5769 35.2319 25.3645 35.1987C25.1522 35.1654 24.9354 35.2182 24.7618 35.3455C24.5882 35.4727 24.4721 35.6639 24.439 35.877C24.3798 36.2507 23.9122 39.5735 25.3593 41.272C25.6028 41.5587 25.9023 41.7923 26.2392 41.9585C26.5761 42.1246 26.9433 42.2198 27.3182 42.2381L27.4113 45.9706H29.1799L29.3068 38.1701C29.6747 38.1466 30.0341 38.0492 30.3637 37.8837C30.6934 37.7181 30.9865 37.4876 31.2256 37.2061C32.6726 35.5203 32.203 32.1954 32.1459 31.8217Z" fill="#D4DCF8"/>
<path d="M91.4989 100.001C142.032 100.001 182.998 85.4456 182.998 67.4907C182.998 49.5358 142.032 34.9805 91.4989 34.9805C40.9655 34.9805 0 49.5358 0 67.4907C0 85.4456 40.9655 100.001 91.4989 100.001Z" fill="url(#paint0_linear_3019_17303)"/>
<path d="M75.9701 33.4302H73.4632C72.4607 33.4285 71.4998 33.028 70.7911 32.3163C70.0824 31.6047 69.6838 30.6401 69.6827 29.634C69.6821 29.3753 69.5794 29.1274 69.3969 28.9447C69.2145 28.762 68.9673 28.6594 68.7096 28.6594H65.8071C65.4345 28.6594 65.0772 28.5109 64.8138 28.2465C64.5503 27.9821 64.4023 27.6235 64.4023 27.2496C64.4023 26.8757 64.5503 26.5172 64.8138 26.2528C65.0772 25.9884 65.4345 25.8398 65.8071 25.8398H68.7096C69.7122 25.8404 70.6737 26.2403 71.3829 26.9516C72.0921 27.663 72.491 28.6277 72.4921 29.634C72.4921 29.8926 72.5944 30.1407 72.7764 30.3238C72.9585 30.5069 73.2054 30.6101 73.4632 30.6106H75.9701C76.3426 30.6106 76.6999 30.7592 76.9634 31.0236C77.2268 31.2879 77.3748 31.6465 77.3748 32.0204C77.3748 32.3943 77.2268 32.7529 76.9634 33.0173C76.6999 33.2817 76.3426 33.4302 75.9701 33.4302Z" fill="url(#paint1_linear_3019_17303)"/>
<path d="M84.2302 2.10305e-06C76.7603 2.10305e-06 70.4433 6.29101 70.2677 13.7583C70.0942 21.7563 70.2106 29.6546 71.537 37.5634C72.1585 40.6854 72.9746 43.7651 73.9805 46.7845C74.4036 47.9862 75.7829 48.9586 76.993 48.9586H77.2045C78.4125 48.9586 78.9477 48.0074 78.4739 46.8248C78.1502 46.018 78.5606 45.3704 79.3581 45.381C80.1557 45.381 81.0506 46.052 81.3975 46.8503C81.9052 48.0201 83.3607 48.9586 84.5708 48.9586H84.7824C85.9903 48.9586 86.4452 48.0393 85.8909 46.8906C85.5122 46.105 85.8909 45.4723 86.6842 45.483C87.4818 45.4957 88.4169 46.139 88.8167 46.9161C89.4027 48.052 90.9323 48.9586 92.1487 48.9586H92.3602C93.5682 48.9586 93.9448 48.0711 93.308 46.9543C92.8849 46.1921 93.2107 45.5764 94.0082 45.587C94.8058 45.587 95.7789 46.2239 96.2338 46.9798C96.9002 48.0838 98.5164 48.9586 99.7265 48.9586H99.8365C101.106 48.9586 101.417 48.0626 100.67 46.9225C99.0514 44.2448 97.7944 41.3632 96.9319 38.3533C95.1485 30.2533 95.8953 22.2468 96.8113 14.0852C97.721 6.42265 91.9033 -0.00424427 84.2302 2.10305e-06Z" fill="url(#paint2_linear_3019_17303)"/>
<path d="M72.8982 16.5495C74.2141 17.4816 76.3614 15.8276 75.3163 12.1439C75.3053 12.1009 75.2811 12.0624 75.2471 12.0339C75.2132 12.0053 75.1712 11.9882 75.127 11.985C75.0828 11.9817 75.0388 11.9924 75.001 12.0156C74.9632 12.0387 74.9337 12.0732 74.9165 12.1142C73.9645 14.4072 71.3285 15.437 72.8982 16.5495Z" fill="#1C2B6B"/>
<path d="M78.8468 11.3233C77.2728 11.9921 80.0949 20.8352 84.4783 18.0453C87.1502 16.3468 84.7406 14.6779 82.0285 13.6694C80.3847 13.0558 79.7945 10.922 78.8468 11.3233Z" fill="#1C2B6B"/>
<path d="M78.097 24.0098C79.2443 24.0098 80.1744 22.6505 80.1744 20.9737C80.1744 19.2968 79.2443 17.9375 78.097 17.9375C76.9496 17.9375 76.0195 19.2968 76.0195 20.9737C76.0195 22.6505 76.9496 24.0098 78.097 24.0098Z" fill="#1C2B6B"/>
<path d="M86.1342 33.4302H83.6273C82.6244 33.4291 81.6629 33.0288 80.9538 32.3171C80.2447 31.6054 79.8458 30.6405 79.8447 29.634C79.8441 29.3757 79.7416 29.1281 79.5597 28.9455C79.3777 28.7628 79.131 28.66 78.8737 28.6594H75.9711C75.5986 28.6594 75.2413 28.5109 74.9778 28.2465C74.7144 27.9821 74.5664 27.6235 74.5664 27.2496C74.5664 26.8757 74.7144 26.5172 74.9778 26.2528C75.2413 25.9884 75.5986 25.8398 75.9711 25.8398H78.8737C79.8763 25.8404 80.8378 26.2403 81.547 26.9516C82.2562 27.663 82.6551 28.6277 82.6562 29.634C82.6562 29.8926 82.7585 30.1407 82.9405 30.3238C83.1226 30.5069 83.3695 30.6101 83.6273 30.6106H86.1342C86.5067 30.6106 86.864 30.7592 87.1274 31.0236C87.3909 31.2879 87.5389 31.6465 87.5389 32.0204C87.5389 32.3943 87.3909 32.7529 87.1274 33.0173C86.864 33.2817 86.5067 33.4302 86.1342 33.4302Z" fill="#4E9CFF"/>
</g>
<defs>
<linearGradient id="paint0_linear_3019_17303" x1="91.4989" y1="20.2477" x2="91.4989" y2="71.2976" gradientUnits="userSpaceOnUse">
<stop stop-color="#D4DCF8"/>
<stop offset="0.48" stop-color="#E4E9FF" stop-opacity="0.52"/>
<stop offset="1" stop-color="#EBEFFD" stop-opacity="0"/>
</linearGradient>
<linearGradient id="paint1_linear_3019_17303" x1="65.6717" y1="25.5065" x2="70.9475" y2="29.6515" gradientUnits="userSpaceOnUse">
<stop stop-color="#4E9CFF"/>
<stop offset="0.19" stop-color="#4190F5"/>
<stop offset="0.71" stop-color="#2274DD"/>
<stop offset="1" stop-color="#176AD4"/>
</linearGradient>
<linearGradient id="paint2_linear_3019_17303" x1="43530.1" y1="41534" x2="50505.9" y2="47592.6" gradientUnits="userSpaceOnUse">
<stop stop-color="#4E9CFF"/>
<stop offset="0.19" stop-color="#5B82FF"/>
<stop offset="0.71" stop-color="#2178FA"/>
<stop offset="1" stop-color="#2054FF"/>
</linearGradient>
<clipPath id="clip0_3019_17303">
<rect width="183" height="100" fill="white"/>
</clipPath>
</defs>
</svg>
