<svg width="17" height="18" viewBox="0 0 17 18" fill="none" xmlns="http://www.w3.org/2000/svg">
<g clip-path="url(#clip0_5_7319)">
<mask id="mask0_5_7319" style="mask-type:luminance" maskUnits="userSpaceOnUse" x="0" y="0" width="17" height="17">
<path d="M0.145206 0.862416L0.205078 16.8623L16.205 16.8024L16.1451 0.802544L0.145206 0.862416Z" fill="white"/>
</mask>
<g mask="url(#mask0_5_7319)">
<path d="M0.169922 9.26182L3.01383 12.0846L5.83654 9.24062L3.56989 9.2491L3.55929 6.41579C3.55575 5.46944 4.30658 4.71298 5.25292 4.70944L11.5925 4.68572C11.8312 5.34106 12.4574 5.81582 13.1905 5.81308C14.1227 5.80959 14.8876 5.0389 14.8841 4.10673C14.8806 3.17456 14.1099 2.40961 13.1778 2.4131C12.4447 2.41585 11.8221 2.89528 11.5883 3.55239L5.24868 3.57611C3.69037 3.58194 2.42014 4.86172 2.42597 6.42003L2.43657 9.25334L0.169922 9.26182ZM1.32233 14.3576C1.32581 15.2898 2.09651 16.0547 3.02868 16.0512C3.76176 16.0485 4.38435 15.569 4.61817 14.9119L10.9578 14.8882C12.5161 14.8824 13.7863 13.6026 13.7805 12.0443L13.7699 9.21094L16.0365 9.20245L13.1926 6.37974L10.3699 9.22366L12.6365 9.21518L12.6471 12.0485C12.6507 12.9949 11.8999 13.7513 10.9535 13.7549L4.61393 13.7786C4.3752 13.1233 3.74903 12.6485 3.01595 12.6512C2.08379 12.6547 1.31884 13.4254 1.32233 14.3576ZM2.45565 14.3533C2.45446 14.0337 2.70052 13.7858 3.02019 13.7846C3.33987 13.7834 3.58778 14.0294 3.58898 14.3491C3.59017 14.6688 3.34411 14.9167 3.02444 14.9179C2.70476 14.9191 2.45685 14.673 2.45565 14.3533ZM12.6175 4.11521C12.6163 3.79554 12.8623 3.54762 13.182 3.54643C13.5017 3.54523 13.7496 3.7913 13.7508 4.11097C13.752 4.43064 13.5059 4.67856 13.1862 4.67975C12.8666 4.68095 12.6187 4.43488 12.6175 4.11521Z" fill="#374B5C"/>
</g>
</g>
<defs>
<clipPath id="clip0_5_7319">
<rect width="17" height="17" fill="white" transform="translate(0 0.65625)"/>
</clipPath>
</defs>
</svg>
