<svg width="21" height="20" viewBox="0 0 21 20" fill="none" xmlns="http://www.w3.org/2000/svg">
<g clip-path="url(#clip0_6_731)">
<path d="M10.0118 8.89644e-05C9.32696 0.00563136 8.64456 0.270265 8.13039 0.792843L0.856041 8.18722C-0.172282 9.23236 -0.158408 10.9347 0.886747 11.963L8.28113 19.2374C9.32627 20.2657 11.0286 20.2518 12.0569 19.2067L19.3312 11.8132L19.3323 11.8123C20.3598 10.7667 20.3458 9.06483 19.3006 8.03649L11.9062 0.762137C11.3836 0.247976 10.6967 -0.00545358 10.0118 8.89644e-05ZM10.0239 1.41997C10.3399 1.41742 10.6568 1.53768 10.9042 1.78099L18.2985 9.05535C18.7931 9.54195 18.799 10.3161 18.3125 10.8111L11.038 18.2046C10.5514 18.6991 9.77781 18.7052 9.28324 18.2185L1.88885 10.9442C1.3943 10.4576 1.38828 9.68391 1.8749 9.18933L9.14925 1.79495C9.39255 1.54767 9.7078 1.42253 10.0239 1.41997ZM10.0825 4.74917C9.89331 4.75213 9.71301 4.83 9.58114 4.9657C9.44927 5.1014 9.37661 5.28386 9.37907 5.47307V11.1898C9.37773 11.2845 9.39523 11.3785 9.43054 11.4664C9.46585 11.5543 9.51827 11.6343 9.58476 11.7017C9.65125 11.7691 9.73048 11.8227 9.81784 11.8592C9.90521 11.8958 9.99897 11.9146 10.0937 11.9146C10.1883 11.9146 10.2821 11.8958 10.3694 11.8592C10.4569 11.8227 10.536 11.7691 10.6025 11.7017C10.669 11.6343 10.7214 11.5543 10.7568 11.4664C10.7922 11.3785 10.8097 11.2845 10.8083 11.1898V5.47307C10.8096 5.3775 10.7916 5.28265 10.7556 5.19414C10.7194 5.10563 10.666 5.02525 10.5983 4.95775C10.5306 4.89026 10.4502 4.83702 10.3616 4.80119C10.273 4.76537 10.1781 4.74768 10.0825 4.74917ZM10.0937 13.3336C9.84097 13.3336 9.59863 13.434 9.41994 13.6127C9.24126 13.7914 9.14087 14.0337 9.14087 14.2864C9.14087 14.5391 9.24126 14.7814 9.41994 14.9601C9.59863 15.1388 9.84097 15.2392 10.0937 15.2392C10.3463 15.2392 10.5887 15.1388 10.7674 14.9601C10.9461 14.7814 11.0464 14.5391 11.0464 14.2864C11.0464 14.0337 10.9461 13.7914 10.7674 13.6127C10.5887 13.434 10.3463 13.3336 10.0937 13.3336Z" fill="#ED5E4F"/>
</g>
<defs>
<clipPath id="clip0_6_731">
<rect width="20" height="20" fill="white" transform="translate(0.09375)"/>
</clipPath>
</defs>
</svg>
